<?xml version="1.0" encoding="UTF-8" standalone="no"?>
<svg
   xmlns:dc="http://purl.org/dc/elements/1.1/"
   xmlns:cc="http://creativecommons.org/ns#"
   xmlns:rdf="http://www.w3.org/1999/02/22-rdf-syntax-ns#"
   xmlns:svg="http://www.w3.org/2000/svg"
   xmlns="http://www.w3.org/2000/svg"
   xmlns:sodipodi="http://sodipodi.sourceforge.net/DTD/sodipodi-0.dtd"
   xmlns:inkscape="http://www.inkscape.org/namespaces/inkscape"
   width="140.30696mm"
   height="103.39993mm"
   viewBox="0 0 140.30696 103.39993"
   version="1.1"
   id="svg8"
   inkscape:version="1.0.2 (e86c8708, 2021-01-15)"
   sodipodi:docname="02-radiance.svg">
  <defs
     id="defs2">
    <marker
       style="overflow:visible"
       id="marker1456"
       refX="0"
       refY="0"
       orient="auto"
       inkscape:stockid="Arrow2Lstart"
       inkscape:isstock="true">
      <path
         transform="matrix(1.1,0,0,1.1,1.1,0)"
         d="M 8.7185878,4.0337352 -2.2072895,0.01601326 8.7185884,-4.0017078 c -1.7454984,2.3720609 -1.7354408,5.6174519 -6e-7,8.035443 z"
         style="fill:#000000;fill-opacity:1;fill-rule:evenodd;stroke:#000000;stroke-width:0.625;stroke-linejoin:round;stroke-opacity:1"
         id="path1454" />
    </marker>
    <marker
       style="overflow:visible"
       id="marker1410"
       refX="0"
       refY="0"
       orient="auto"
       inkscape:stockid="Arrow1Lstart"
       inkscape:isstock="true">
      <path
         transform="matrix(0.8,0,0,0.8,10,0)"
         style="fill:#000000;fill-opacity:1;fill-rule:evenodd;stroke:#000000;stroke-width:1pt;stroke-opacity:1"
         d="M 0,0 5,-5 -12.5,0 5,5 Z"
         id="path1408" />
    </marker>
    <marker
       style="overflow:visible"
       id="Arrow2Lend"
       refX="0"
       refY="0"
       orient="auto"
       inkscape:stockid="Arrow2Lend"
       inkscape:isstock="true">
      <path
         transform="matrix(-1.1,0,0,-1.1,-1.1,0)"
         d="M 8.7185878,4.0337352 -2.2072895,0.01601326 8.7185884,-4.0017078 c -1.7454984,2.3720609 -1.7354408,5.6174519 -6e-7,8.035443 z"
         style="fill:#000000;fill-opacity:1;fill-rule:evenodd;stroke:#000000;stroke-width:0.625;stroke-linejoin:round;stroke-opacity:1"
         id="path1027" />
    </marker>
    <marker
       style="overflow:visible"
       id="Arrow1Lend"
       refX="0"
       refY="0"
       orient="auto"
       inkscape:stockid="Arrow1Lend"
       inkscape:isstock="true">
      <path
         transform="matrix(-0.8,0,0,-0.8,-10,0)"
         style="fill:#000000;fill-opacity:1;fill-rule:evenodd;stroke:#000000;stroke-width:1pt;stroke-opacity:1"
         d="M 0,0 5,-5 -12.5,0 5,5 Z"
         id="path1009" />
    </marker>
    <marker
       style="overflow:visible"
       id="Arrow1Lstart"
       refX="0"
       refY="0"
       orient="auto"
       inkscape:stockid="Arrow1Lstart"
       inkscape:isstock="true">
      <path
         transform="matrix(0.8,0,0,0.8,10,0)"
         style="fill:#000000;fill-opacity:1;fill-rule:evenodd;stroke:#000000;stroke-width:1pt;stroke-opacity:1"
         d="M 0,0 5,-5 -12.5,0 5,5 Z"
         id="path1006" />
    </marker>
    <marker
       style="overflow:visible"
       id="Arrow2Lstart"
       refX="0"
       refY="0"
       orient="auto"
       inkscape:stockid="Arrow2Lstart"
       inkscape:isstock="true">
      <path
         transform="matrix(1.1,0,0,1.1,1.1,0)"
         d="M 8.7185878,4.0337352 -2.2072895,0.01601326 8.7185884,-4.0017078 c -1.7454984,2.3720609 -1.7354408,5.6174519 -6e-7,8.035443 z"
         style="fill:#000000;fill-opacity:1;fill-rule:evenodd;stroke:#000000;stroke-width:0.625;stroke-linejoin:round;stroke-opacity:1"
         id="path1024" />
    </marker>
  </defs>
  <sodipodi:namedview
     id="base"
     pagecolor="#ffffff"
     bordercolor="#666666"
     borderopacity="1.0"
     inkscape:pageopacity="0.0"
     inkscape:pageshadow="2"
     inkscape:zoom="1.6927823"
     inkscape:cx="387.19683"
     inkscape:cy="135.18823"
     inkscape:document-units="mm"
     inkscape:current-layer="layer1"
     inkscape:document-rotation="0"
     showgrid="false"
     inkscape:window-width="2560"
     inkscape:window-height="1440"
     inkscape:window-x="0"
     inkscape:window-y="0"
     inkscape:window-maximized="0"
     inkscape:snap-global="false"
     fit-margin-top="0"
     fit-margin-left="0"
     fit-margin-right="0"
     fit-margin-bottom="0" />
  <metadata
     id="metadata5">
    <rdf:RDF>
      <cc:Work
         rdf:about="">
        <dc:format>image/svg+xml</dc:format>
        <dc:type
           rdf:resource="http://purl.org/dc/dcmitype/StillImage" />
        <dc:title></dc:title>
      </cc:Work>
    </rdf:RDF>
  </metadata>
  <g
     inkscape:label="Layer 1"
     inkscape:groupmode="layer"
     id="layer1"
     transform="translate(-77.350245,-85.875153)">
    <path
       style="fill:#e0e01f;fill-opacity:1;stroke:none;stroke-width:0.26565px;stroke-linecap:butt;stroke-linejoin:miter;stroke-opacity:1"
       d="m 173.59591,90.906964 c 0,0 -0.15695,0 -27.25031,43.841316 40.27643,-38.585566 40.27643,-38.585566 40.27643,-38.585566"
       id="path1512" />
    <text
       xml:space="preserve"
       style="font-style:normal;font-weight:normal;font-size:10.5833px;line-height:1.25;font-family:sans-serif;fill:#000000;fill-opacity:1;stroke:none;stroke-width:0.264583"
       x="93.505615"
       y="64.797745"
       id="text12"><tspan
         sodipodi:role="line"
         id="tspan10"
         x="93.505615"
         y="64.797745"
         style="stroke-width:0.264583" /></text>
    <rect
       style="fill:none;stroke:#000000;stroke-width:0.7;stroke-miterlimit:4;stroke-dasharray:none;stroke-opacity:1"
       id="rect878-4"
       width="2.7340822"
       height="45.659172"
       x="206.97"
       y="128.77527" />
    <rect
       style="fill:none;stroke:#000000;stroke-width:0.7;stroke-miterlimit:4;stroke-dasharray:none;stroke-opacity:1"
       id="rect878-80"
       width="2.7340822"
       height="45.659172"
       x="85.303368"
       y="128.77527" />
    <path
       id="rect875"
       style="fill:#ffffff;fill-opacity:1;stroke:#000000;stroke-width:0.7;stroke-miterlimit:4;stroke-dasharray:none;stroke-opacity:1"
       d="M 85.303368,128.77527 H 209.70409 l 7.38202,14.49064 H 77.921346 Z"
       sodipodi:nodetypes="ccccc" />
    <path
       style="fill:#dfdf20;fill-opacity:1;stroke:none;stroke-width:0.264583px;stroke-linecap:butt;stroke-linejoin:miter;stroke-opacity:1"
       d="m 139.7728,134.03296 c 0,0 0,0 24.66579,-21.56317 -10.27407,22.5678 -10.27407,22.5678 -10.27407,22.5678"
       id="path1526" />
    <rect
       style="fill:none;stroke:#000000;stroke-width:0.7;stroke-miterlimit:4;stroke-dasharray:none;stroke-opacity:1"
       id="rect878"
       width="2.7340822"
       height="45.659172"
       x="77.921349"
       y="143.26591" />
    <rect
       style="fill:none;stroke:#000000;stroke-width:0.7;stroke-miterlimit:4;stroke-dasharray:none;stroke-opacity:1"
       id="rect878-8"
       width="2.7340822"
       height="45.659172"
       x="214.35202"
       y="143.26591" />
    <circle
       style="fill:#ffffff;fill-opacity:1;stroke:#000000;stroke-width:0.350255;stroke-miterlimit:4;stroke-dasharray:none;stroke-opacity:1"
       id="path936"
       sodipodi:type="arc"
       sodipodi:cx="-203.7588"
       sodipodi:cy="-17.927979"
       sodipodi:rx="6.8290391"
       sodipodi:ry="6.4582214"
       sodipodi:start="0"
       sodipodi:end="3.1283484"
       sodipodi:arc-type="slice"
       d="m -196.92977,-17.927979 a 6.8290391,6.4582214 0 0 1 -6.78381,6.45808 6.8290391,6.4582214 0 0 1 -6.87366,-6.372548 l 6.82844,-0.08553 z"
       transform="matrix(-0.92519985,-0.37948022,0.46721361,-0.88414447,0,0)" />
    <circle
       style="fill:none;fill-opacity:1;stroke:#000000;stroke-width:0.2;stroke-miterlimit:4;stroke-dasharray:0.8, 0.2;stroke-dashoffset:0;stroke-opacity:1"
       id="path938"
       sodipodi:type="arc"
       sodipodi:cx="-145.95815"
       sodipodi:cy="-136.47842"
       sodipodi:rx="29.942654"
       sodipodi:ry="30.975157"
       sodipodi:start="0"
       sodipodi:end="3.1402677"
       sodipodi:arc-type="arc"
       d="m -116.01549,-136.47842 a 29.942654,30.975157 0 0 1 -29.92282,30.97515 29.942654,30.975157 0 0 1 -29.96246,-30.93411"
       transform="scale(-1)"
       sodipodi:open="true" />
    <circle
       style="fill:none;fill-opacity:1;stroke:#000000;stroke-width:0.2;stroke-miterlimit:4;stroke-dasharray:0.8, 0.2;stroke-dashoffset:0;stroke-opacity:1"
       id="path940"
       sodipodi:type="arc"
       sodipodi:cx="145.84354"
       sodipodi:cy="135.81155"
       sodipodi:rx="29.703047"
       sodipodi:ry="6.1316695"
       sodipodi:start="3.1415927"
       sodipodi:end="3.1283456"
       sodipodi:arc-type="arc"
       d="m 116.14049,135.81155 a 29.703047,6.1316695 0 0 1 29.60468,-6.13163 29.703047,6.1316695 0 0 1 29.80076,6.09102 29.703047,6.1316695 0 0 1 -29.40729,6.17198 29.703047,6.1316695 0 0 1 -29.99554,-6.05014"
       sodipodi:open="true" />
    <circle
       style="fill:#ffffff;fill-opacity:0.605634;stroke:#000000;stroke-width:0.323342;stroke-miterlimit:4;stroke-dasharray:none;stroke-opacity:1"
       id="path942"
       sodipodi:type="arc"
       sodipodi:cx="198.96999"
       sodipodi:cy="2.5153303"
       sodipodi:rx="3.5511339"
       sodipodi:ry="1.3678722"
       sodipodi:start="3.1914621"
       sodipodi:end="3.1283456"
       sodipodi:arc-type="arc"
       d="m 195.42327,2.4471436 a 3.5511339,1.3678722 0 0 1 3.66775,-1.2988908 3.5511339,1.3678722 0 0 1 3.4295,1.3921235 3.5511339,1.3678722 0 0 1 -3.55953,1.3428219 3.5511339,1.3678722 0 0 1 -3.54183,-1.3497481"
       sodipodi:open="true"
       transform="matrix(0.82936557,0.55870632,-0.44349059,0.89627903,0,0)" />
    <circle
       style="fill:none;fill-opacity:1;stroke:#000000;stroke-width:0.313001;stroke-miterlimit:4;stroke-dasharray:none;stroke-opacity:1"
       id="path942-7"
       sodipodi:type="arc"
       sodipodi:cx="-145.09097"
       sodipodi:cy="-132.68774"
       sodipodi:rx="7.368701"
       sodipodi:ry="2.6763947"
       sodipodi:start="3.1914621"
       sodipodi:end="3.1283456"
       sodipodi:arc-type="arc"
       sodipodi:open="true"
       transform="matrix(-0.99987738,-0.01565935,-0.01538125,-0.9998817,0,0)"
       d="m -152.45051,-132.82116 a 7.368701,2.6763947 0 0 1 7.61069,-2.54142 7.368701,2.6763947 0 0 1 7.11631,2.72384 7.368701,2.6763947 0 0 1 -7.38612,2.62738 7.368701,2.6763947 0 0 1 -7.3494,-2.64093" />
    <circle
       style="fill:#ffffff;fill-opacity:0.605634;stroke:#000000;stroke-width:0.325961;stroke-miterlimit:4;stroke-dasharray:none;stroke-opacity:1"
       id="path942-7-8"
       sodipodi:type="arc"
       sodipodi:cx="-195.43199"
       sodipodi:cy="-22.520729"
       sodipodi:rx="4.0012484"
       sodipodi:ry="1.5205437"
       sodipodi:start="3.1914621"
       sodipodi:end="3.1283456"
       sodipodi:arc-type="arc"
       sodipodi:open="true"
       transform="matrix(-0.83637077,-0.54816415,0.45332773,-0.89134391,0,0)"
       d="m -199.42827,-22.596526 a 4.0012484,1.5205437 0 0 1 4.13266,-1.443863 4.0012484,1.5205437 0 0 1 3.8642,1.547501 4.0012484,1.5205437 0 0 1 -4.01071,1.492698 4.0012484,1.5205437 0 0 1 -3.99077,-1.500397" />
    <path
       style="fill:none;stroke:#000000;stroke-width:0.2;stroke-linecap:butt;stroke-linejoin:miter;stroke-miterlimit:4;stroke-dasharray:none;stroke-opacity:1;marker-start:url(#marker1456)"
       d="M 146.92114,135.26363 C 180.22168,92.730231 180.50152,93.282619 180.50152,93.282619"
       id="path1004" />
    <text
       xml:space="preserve"
       style="font-style:normal;font-weight:normal;font-size:10.5833px;line-height:1.25;font-family:sans-serif;fill:#000000;fill-opacity:1;stroke:none;stroke-width:0.264583"
       x="170.7381"
       y="115.71468"
       id="text1620"><tspan
         sodipodi:role="line"
         id="tspan1618"
         x="170.7381"
         y="115.71468"
         style="font-size:4.23333px;stroke-width:0.264583">\(d\omega\)</tspan></text>
    <text
       xml:space="preserve"
       style="font-style:normal;font-weight:normal;font-size:10.5833px;line-height:1.25;font-family:sans-serif;fill:#000000;fill-opacity:1;stroke:none;stroke-width:0.264583"
       x="140.67078"
       y="125.35329"
       id="text1678"><tspan
         sodipodi:role="line"
         id="tspan1676"
         x="140.67078"
         y="125.35329"
         style="font-size:4.23333px;stroke-width:0.264583">\(dA^{\perp}\)</tspan></text>
    <text
       xml:space="preserve"
       style="font-style:normal;font-weight:normal;font-size:10.5833px;line-height:1.25;font-family:sans-serif;fill:#000000;fill-opacity:1;stroke:none;stroke-width:0.264583"
       x="130.70334"
       y="137.4767"
       id="text1678-1"><tspan
         sodipodi:role="line"
         id="tspan1676-4"
         x="130.70334"
         y="137.4767"
         style="font-size:4.23333px;stroke-width:0.264583">\(dA\)</tspan></text>
    <text
       xml:space="preserve"
       style="font-style:normal;font-weight:normal;font-size:10.5833px;line-height:1.25;font-family:sans-serif;fill:#000000;fill-opacity:1;stroke:none;stroke-width:0.264583"
       x="188.34253"
       y="89.091492"
       id="text1820"><tspan
         sodipodi:role="line"
         id="tspan1818"
         x="188.34253"
         y="89.091492"
         style="font-size:4.23333px;stroke-width:0.264583">light</tspan></text>
  </g>
</svg>
